<svg width="34" height="33" viewBox="0 0 34 33" fill="none" xmlns="http://www.w3.org/2000/svg">
<path d="M33.347 14.893L24.448 11.599L21.125 0.708C20.997 0.288 20.608 0 20.169 0C19.73 0 19.341 0.288 19.213 0.708L15.891 11.599L6.991 14.893C6.598 15.039 6.338 15.412 6.338 15.831C6.338 16.249 6.598 16.624 6.991 16.769L15.886 20.062L19.21 31.285C19.336 31.709 19.726 32 20.169 32C20.611 32 21.002 31.709 21.128 31.284L24.452 20.061L33.348 16.768C33.739 16.624 34 16.25 34 15.831C34 15.413 33.739 15.039 33.347 14.893Z" fill="#FFAC33"/>
<path d="M13.347 25.894L11.033 25.038L10.133 21.738C10.015 21.302 9.62 21 9.169 21C8.718 21 8.323 21.302 8.204 21.737L7.304 25.037L4.991 25.893C4.598 26.038 4.338 26.413 4.338 26.831C4.338 27.249 4.598 27.624 4.991 27.769L7.292 28.622L8.199 32.244C8.311 32.688 8.71 33 9.169 33C9.628 33 10.027 32.688 10.139 32.243L11.046 28.621L13.347 27.768C13.74 27.624 14 27.249 14 26.831C14 26.413 13.74 26.038 13.347 25.894ZM9.009 4.231L6.645 3.356L5.769 0.991C5.624 0.598 5.25 0.338 4.831 0.338C4.413 0.338 4.039 0.598 3.893 0.991L3.018 3.356L0.653 4.231C0.26 4.377 0 4.751 0 5.169C0 5.587 0.26 5.962 0.653 6.107L3.018 6.982L3.893 9.347C4.039 9.74 4.413 10 4.831 10C5.249 10 5.623 9.74 5.769 9.347L6.644 6.982L9.009 6.107C9.402 5.961 9.662 5.587 9.662 5.169C9.662 4.751 9.402 4.377 9.009 4.231Z" fill="#FFCC4D"/>
</svg>
