<svg width="30" height="36" viewBox="0 0 30 36" fill="none" xmlns="http://www.w3.org/2000/svg">
<path d="M29.938 15.651C29.792 15.26 29.418 15 29 15H16.925L23.89 1.458C24.109 1.032 23.996 0.511 23.619 0.215C23.437 0.071 23.218 0 23 0C22.767 0 22.534 0.082 22.347 0.243L15 6.588L0.347 19.243C0.0309998 19.516 -0.0830001 19.957 0.0629999 20.348C0.209 20.739 0.582 21 1 21H13.075L6.11 34.542C5.891 34.968 6.004 35.489 6.381 35.785C6.563 35.929 6.782 36 7 36C7.233 36 7.466 35.918 7.653 35.757L15 29.412L29.653 16.757C29.97 16.484 30.083 16.043 29.938 15.651Z" fill="#FFAC33"/>
</svg>
