<svg width="24" height="24" viewBox="0 0 24 24" fill="none" xmlns="http://www.w3.org/2000/svg">
<path d="M11.9997 24.0003C18.6269 24.0003 23.9993 21.0156 23.9993 17.3338C23.9993 13.652 18.6269 10.6674 11.9997 10.6674C5.37243 10.6674 0 13.652 0 17.3338C0 21.0156 5.37243 24.0003 11.9997 24.0003Z" fill="#292F33"/>
<path d="M11.9997 22.6669C18.6269 22.6669 23.9993 19.6823 23.9993 16.0005C23.9993 12.3187 18.6269 9.33398 11.9997 9.33398C5.37243 9.33398 0 12.3187 0 16.0005C0 19.6823 5.37243 22.6669 11.9997 22.6669Z" fill="#66757F"/>
<path d="M12 20.6668C2.02829 20.6668 0.666992 10.6671 0.666992 8.00049H23.333C23.333 9.33378 22.0277 20.6668 12 20.6668Z" fill="#E1E8ED"/>
<path d="M23.333 8.0378C23.333 11.515 18.2592 14.3336 12 14.3336C5.74085 14.3336 0.666992 11.5144 0.666992 8.0378C0.666992 4.56057 5.74085 2.40796 12 2.40796C18.2592 2.40796 23.333 4.56057 23.333 8.0378Z" fill="#77B255"/>
<path d="M11.9997 13.3336C17.5224 13.3336 21.9994 11.2443 21.9994 8.66703C21.9994 6.08977 17.5224 4.00049 11.9997 4.00049C6.47703 4.00049 2 6.08977 2 8.66703C2 11.2443 6.47703 13.3336 11.9997 13.3336Z" fill="#A6D388"/>
<path d="M13.9994 11.3337C13.8287 11.3337 13.658 11.2684 13.528 11.1384C11.9701 9.5804 11.9441 7.88178 13.4447 5.63051C13.9374 4.8912 14.0447 4.13322 13.7634 3.37924C13.456 2.55526 12.8047 2.04861 12.6094 1.99461C12.2407 1.99461 11.9707 1.69929 11.9707 1.33063C11.9707 0.96264 12.2981 0.667315 12.6661 0.667315C13.3307 0.667315 14.2627 1.43596 14.788 2.41727C15.4773 3.7059 15.3946 5.10986 14.554 6.36982C13.2467 8.3311 13.5334 9.25774 14.4707 10.1951C14.7313 10.4557 14.7313 10.877 14.4707 11.1377C14.3407 11.2684 14.17 11.3337 13.9994 11.3337ZM9.99946 10.0004C9.8288 10.0004 9.65814 9.93506 9.52814 9.80506C7.97019 8.2471 7.94419 6.54848 9.44481 4.29721C9.92947 3.5699 10.0401 2.90859 9.77414 2.3326C9.47815 1.69195 8.82016 1.3533 8.6515 1.3333C8.28351 1.3333 7.99219 1.0353 7.99219 0.666648C7.99219 0.298658 8.29751 0 8.66617 0C9.33082 0 10.3895 0.649315 10.9061 1.61529C11.2268 2.21461 11.6074 3.4559 10.5541 5.03586C9.24682 6.99714 9.53348 7.92378 10.4708 8.86109C10.7314 9.12175 10.7314 9.54307 10.4708 9.80373C10.3408 9.93506 10.1701 10.0004 9.99946 10.0004Z" fill="#5C913B"/>
</svg>
