<svg width="28" height="36" viewBox="0 0 28 36" fill="none" xmlns="http://www.w3.org/2000/svg">
<path d="M28 28H0V4C0 1.791 1.791 0 4 0H24C26.209 0 28 1.791 28 4V28Z" fill="#DD2E44"/>
<path d="M4 36H24C26.209 36 28 34.209 28 32V28C23.883 25.256 6.861 19.767 0 28V32C0 34.209 1.791 36 4 36Z" fill="black"/>
<path d="M11.276 20.073C15.4612 20.073 18.854 16.6802 18.854 12.495C18.854 8.30979 15.4612 4.917 11.276 4.917C7.09079 4.917 3.698 8.30979 3.698 12.495C3.698 16.6802 7.09079 20.073 11.276 20.073Z" fill="white"/>
</svg>
